<svg width="116" height="40" viewBox="0 0 116 40" fill="none" xmlns="http://www.w3.org/2000/svg">
<path d="M0 0V40H115.812V0H0Z" fill="#F09D51"/>
<path d="M57.3439 2C26.1229 2 0.809021 10.165 0.809021 20.2368C0.809021 30.3074 26.1229 38.4785 57.3439 38.4785C88.5664 38.4785 113.883 30.3081 113.883 20.2368C113.883 10.1647 88.566 2 57.3439 2Z" fill="white"/>
<path d="M29.7412 19.1211C29.6865 20.4108 29.6592 21.737 29.6592 23.0996V25.1367H29.1602L28.9893 25.1299L26.5625 25.1504C26.4076 25.1504 26.3255 25.1527 26.3164 25.1572C26.3164 25.1527 26.3255 25.1139 26.3438 25.041V25L26.3506 24.9727C26.3278 24.6445 26.3164 24.2458 26.3164 23.7764L26.3438 16.1406L26.3369 15.7852V15.4434L26.3232 14.8008C26.3232 14.7552 26.3483 14.7074 26.3984 14.6572H27.335L27.8818 14.6504C29.167 14.6504 30.0853 14.6686 30.6367 14.7051C31.1927 14.7415 31.5915 14.7598 31.833 14.7598C31.9652 15.5436 32.1611 16.5827 32.4209 17.877L32.9062 20.3242H33.1455L34.0205 15.8535C34.0342 15.7852 34.0661 15.5869 34.1162 15.2588C34.1663 14.9261 34.2051 14.7415 34.2324 14.7051H34.2598L38.71 14.6641L38.9766 14.6709H39.7422C39.7832 14.6891 39.806 14.7734 39.8105 14.9238L39.8789 17.5078C39.9336 19.6497 39.9723 21.3177 39.9951 22.5117C39.9951 23.4323 39.9814 24.2959 39.9541 25.1025C39.9404 25.1572 39.8493 25.1891 39.6807 25.1982L39.373 25.2119C39.127 25.221 38.9447 25.2256 38.8262 25.2256H38.4707C38.0286 25.2301 37.377 25.2324 36.5156 25.2324C36.3561 25.0911 36.2764 24.4805 36.2764 23.4004L36.29 21.2539V20.7002C36.29 20.2126 36.2878 19.8525 36.2832 19.6201L36.0234 19.5723C35.873 20.1237 35.5837 21.3519 35.1553 23.2568L35.0938 23.5303C35.0618 23.6715 35.0072 23.9245 34.9297 24.2891C34.8568 24.6491 34.7975 24.9225 34.752 25.1094C34.6973 25.1732 34.4557 25.2051 34.0273 25.2051H33.9385L33.1729 25.1846L32.7559 25.1914H32.4346L31.8945 25.1982H31.7031C31.4935 25.1982 31.3773 25.1504 31.3545 25.0547L31.3613 25.0615L30.7393 22.3477C30.721 22.2793 30.68 22.1312 30.6162 21.9033C30.5524 21.6709 30.516 21.4772 30.5068 21.3223L29.9941 19.1074L29.7412 19.1211ZM44.6299 24.2686C44.6299 23.3434 44.6549 22.7008 44.7051 22.3408C44.7051 20.3584 44.7324 18.36 44.7871 16.3457C44.7734 16.0586 44.7666 15.7692 44.7666 15.4775V15.252C44.7484 15.1107 44.7393 14.9854 44.7393 14.876C44.7393 14.7666 44.7507 14.696 44.7734 14.6641C45.7487 14.7233 46.6032 14.7529 47.3369 14.7529C48.0706 14.7529 48.5742 14.7393 48.8477 14.7119C48.8568 14.7256 48.8636 14.7643 48.8682 14.8281H48.8203V17.3027L48.8682 22.8672C48.8682 22.9082 48.875 22.9424 48.8887 22.9697V22.9834C48.9023 23.0107 48.9092 23.0404 48.9092 23.0723L48.9639 25.0615C48.9411 25.1117 48.9001 25.1504 48.8408 25.1777H48.6084L44.7803 25.2393C44.7347 25.2165 44.6755 25.1823 44.6025 25.1367L44.6094 25.0205L44.6299 24.2686ZM53.9678 15.7031L53.9473 15.1152C53.9473 14.8646 53.9723 14.7096 54.0225 14.6504C54.1455 14.6458 54.3779 14.6436 54.7197 14.6436C55.0661 14.6436 55.3646 14.6458 55.6152 14.6504L56.5791 14.6641C56.7568 14.6504 57.0143 14.6436 57.3516 14.6436C57.6888 14.6436 57.903 14.6891 57.9941 14.7803C57.9714 15.8923 57.96 17.2139 57.96 18.7451L58.1992 18.7861C58.2676 18.6084 58.3906 18.3418 58.5684 17.9863C58.7507 17.6309 58.8555 17.4235 58.8828 17.3643L58.958 17.2002C58.9762 17.1592 59.0583 16.9837 59.2041 16.6738C59.3545 16.3594 59.5072 16.0085 59.6621 15.6211C59.8171 15.2292 59.9834 14.9215 60.1611 14.6982C60.4801 14.6937 60.8675 14.6914 61.3232 14.6914C61.7835 14.6914 62.319 14.7005 62.9297 14.7188C63.5404 14.7324 63.9984 14.7393 64.3037 14.7393C63.0049 17.0863 62.082 18.7109 61.5352 19.6133L61.6924 19.8662C61.8792 20.0986 62.2871 20.7617 62.916 21.8555C63.5449 22.9492 64.0007 23.7262 64.2832 24.1865L64.4473 24.4531C64.6478 24.7858 64.748 24.9749 64.748 25.0205C64.748 25.0661 64.7344 25.1071 64.707 25.1436H64.666C64.4108 25.1344 64.2035 25.1299 64.0439 25.1299C63.889 25.1299 63.6839 25.1344 63.4287 25.1436H60.3594C59.6576 23.8311 58.9284 22.4069 58.1719 20.8711C58.1354 21.2357 58.0807 22.097 58.0078 23.4551V23.5439L58.0215 25.0957C57.9668 25.1777 57.7275 25.2188 57.3037 25.2188L57.1602 25.2119H56.791L54.8564 25.2256H54.2275C54.0999 25.2256 54.0088 25.1777 53.9541 25.082L53.9336 25.0615V24.0225L53.9473 22.9492V19.0869L53.9678 15.7031ZM68.7129 16.5371L68.6787 14.7393C68.6833 14.7393 68.6992 14.7461 68.7266 14.7598C72.1901 14.7005 74.7992 14.6686 76.5537 14.6641C76.5719 14.6732 76.5856 14.6868 76.5947 14.7051V16.6328C76.5947 16.8197 76.5902 16.9723 76.5811 17.0908C76.5583 17.1637 76.4238 17.2002 76.1777 17.2002H76.1299C75.027 17.2002 73.8786 17.182 72.6846 17.1455C72.6846 17.1865 72.6777 17.2594 72.6641 17.3643C72.6549 17.4691 72.6481 17.5443 72.6436 17.5898L72.6094 17.8496C72.5866 18.0228 72.5706 18.3236 72.5615 18.752L74.6807 18.7041C75.0452 18.695 75.3096 18.6904 75.4736 18.6904H75.583C75.861 18.6904 76.0433 18.6995 76.1299 18.7178C76.2165 18.7314 76.2598 18.777 76.2598 18.8545L76.2529 18.9092V19.0732L76.2871 20.8301L76.2803 20.8369V20.8301C74.8949 20.8984 73.7874 20.9326 72.958 20.9326H72.6367V22.5869L76.3486 22.4707C76.5537 22.4707 76.6836 22.5003 76.7383 22.5596C76.7337 22.6781 76.7314 22.8467 76.7314 23.0654L76.7793 24.9248C76.7793 25.0387 76.7292 25.1048 76.6289 25.123L74.3594 25.1025C73.9128 25.1025 73.0241 25.1185 71.6934 25.1504L70.5723 25.1777C69.7793 25.2051 69.1914 25.2188 68.8086 25.2188L68.7881 25.2051H68.7949C68.7493 25.1595 68.7061 25.1162 68.665 25.0752V24.8359L68.7061 17.5283L68.7129 16.5371ZM91.9619 25.0752C91.9574 25.1344 91.832 25.1641 91.5859 25.1641H90.957L90.5332 25.1709H90.1162L89.4531 25.1777C88.7923 25.1777 88.2432 25.1618 87.8057 25.1299C87.792 25.1253 87.776 25.098 87.7578 25.0479L87.7236 24.9043C87.6826 24.4349 87.5755 23.9814 87.4023 23.5439L84.4766 23.5713C84.4583 23.6488 84.3991 23.8789 84.2988 24.2617C84.1986 24.6445 84.1234 24.9339 84.0732 25.1299C84.0277 25.1755 83.8112 25.1982 83.4238 25.1982L83.2529 25.1914H82.8564L81.0791 25.2324H80.874L80.6826 25.2393H80.2041C80.1722 25.2074 80.138 25.1663 80.1016 25.1162C80.5573 23.5394 81.1748 21.5843 81.9541 19.251L82.1113 18.7656H82.1045L82.2891 18.1982C82.3483 18.016 82.5169 17.5101 82.7949 16.6807C83.0775 15.8512 83.2529 15.3158 83.3213 15.0742C83.3942 14.8327 83.4375 14.7074 83.4512 14.6982H84.5859L87.0127 14.6641L87.6689 14.6982L88.209 14.6641C88.4824 14.6641 88.6191 14.7188 88.6191 14.8281C89.0749 16.0996 89.6833 17.9294 90.4443 20.3174C91.2054 22.7054 91.6338 24.0475 91.7295 24.3438L91.8252 24.6855C91.8571 24.8086 91.9027 24.9385 91.9619 25.0752ZM85.1943 21.3428L85.4746 21.3496L87.1084 21.3428C87.04 20.8005 86.9876 20.4017 86.9512 20.1465L86.6914 18.9775C86.418 17.7699 86.2767 17.1546 86.2676 17.1318C86.2585 17.109 86.2493 17.0885 86.2402 17.0703C86.2357 17.0475 86.2311 17.0339 86.2266 17.0293C86.222 17.0202 86.2152 17.0065 86.2061 16.9883C86.2015 16.9701 86.1947 16.9587 86.1855 16.9541C86.181 16.945 86.1742 16.9336 86.165 16.9199C86.1331 16.8652 86.0671 16.8174 85.9668 16.7764C85.8438 16.8037 85.4769 18.1755 84.8662 20.8916L84.791 21.3428H85.1943Z" fill="#F09D51"/>
</svg>
